<?xml version="1.0" encoding="utf-8"?>
<!-- Generator: Adobe Illustrator 19.0.0, SVG Export Plug-In . SVG Version: 6.00 Build 0)  -->
<svg version="1.1" id="Capa_1" xmlns="http://www.w3.org/2000/svg" xmlns:xlink="http://www.w3.org/1999/xlink" x="0px" y="0px"
	 viewBox="0 0 44 44" style="enable-background:new 0 0 44 44;" xml:space="preserve">
<style type="text/css">
	.st0{fill:#FD1472;}
</style>
<g id="XMLID_28_">
	<rect id="XMLID_30_" x="13.4" y="30.6" class="st0" width="5.7" height="5.7"/>
	<rect id="XMLID_47_" x="7.7" y="24.9" class="st0" width="5.7" height="5.7"/>
	<polygon id="XMLID_48_" class="st0" points="7.7,13.4 7.7,7.7 1.9,7.7 1.9,13.4 1.9,19.1 1.9,24.9 7.7,24.9 7.7,19.1 	"/>
	<polygon id="XMLID_49_" class="st0" points="19.1,7.7 19.1,1.9 13.4,1.9 7.7,1.9 7.7,7.7 13.4,7.7 	"/>
	<rect id="XMLID_50_" x="19.1" y="36.3" class="st0" width="5.7" height="5.7"/>
	<rect id="XMLID_51_" x="24.9" y="30.6" class="st0" width="5.7" height="5.7"/>
	<rect id="XMLID_52_" x="30.6" y="24.9" class="st0" width="5.7" height="5.7"/>
	<polygon id="XMLID_53_" class="st0" points="36.3,7.7 36.3,13.4 36.3,19.1 36.3,24.9 42.1,24.9 42.1,19.1 42.1,13.4 42.1,7.7 	"/>
	<polygon id="XMLID_54_" class="st0" points="36.3,7.7 36.3,1.9 30.6,1.9 24.9,1.9 24.9,7.7 30.6,7.7 	"/>
	<rect id="XMLID_55_" x="19.1" y="7.7" class="st0" width="5.7" height="5.7"/>
</g>
</svg>
